<?xml version="1.0" encoding="utf-8"?>
<!-- Generator: Adobe Illustrator 25.1.0, SVG Export Plug-In . SVG Version: 6.00 Build 0)  -->
<svg version="1.1" id="Layer_1" xmlns="http://www.w3.org/2000/svg" xmlns:xlink="http://www.w3.org/1999/xlink" x="0px" y="0px"
	 viewBox="0 0 52 65" style="enable-background:new 0 0 52 65;" xml:space="preserve">
<g>
	<path d="M7.1,45.1c2.1,2.2,4.7,4.5,7.7,5.3c1.1,0.3,2.3,0.4,3.4,0.2c2.2-0.4,4.2-1.7,5.6-3.2c1.4-1.6,2.4-3.5,3.1-5.4
		c0.2-0.5,0.3-1,0.5-1.4c0.1-0.4,0.3-0.9,0.5-1.3c1.2-2.6,3.2-4.7,5.6-6.4c0.8-0.6,1.7-1.4,2.2-2.4s0.7-2.2,0.4-3.2
		c-0.5-1.9-1.7-3.4-2.9-4.8c1-0.9,1.9-1.7,2.8-2.6c2.4-2.2,4.7-4.5,7.1-6.8c1.2-0.6,2.9-1.6,3.1-1.7c0,0.1,0.1,0.2,0.1,0.3
		c0.1,0.1,0.3,0.2,0.5,0.1c0.2,0,0.5-0.1,0.9-0.3c0.2-0.4,0.2-0.6,0.3-0.9c0-0.2,0-0.4-0.1-0.5L47.8,10c0.2-0.2,0.4-0.5,0.6-0.7l0,0
		L48.8,9c0,0.1,0,0.1,0.1,0.1c0.1,0.1,0.3,0.2,0.5,0.1c0.2,0,0.5-0.1,0.9-0.3c0.2-0.4,0.2-0.6,0.3-0.9c0-0.2,0-0.4-0.1-0.5
		c0,0-0.1,0-0.1-0.1c0.2-0.3,0.3-0.7,0.3-1.1c0-0.5-0.3-1-0.6-1.3l-0.5-0.6l-1.1-1.1C47.3,2,47.2,2,46.9,1.6C46.6,1.3,46,1,45.5,1
		c-0.4,0-0.8,0.1-1.1,0.3c-0.1-0.1-0.2-0.1-0.4-0.1s-0.5,0.1-0.9,0.3c-0.2,0.4-0.2,0.6-0.3,0.9c0,0.2,0,0.3,0.1,0.4
		c-0.2,0.2-0.3,0.4-0.5,0.5c-0.2,0.2-0.4,0.4-0.6,0.6c-0.1-0.1-0.2-0.1-0.4-0.1s-0.5,0.1-0.9,0.3c-0.2,0.4-0.2,0.6-0.3,0.9
		c0,0.2,0,0.4,0.2,0.5c0.1,0.1,0.2,0.1,0.3,0.1c-0.1,0.2-0.2,0.4-0.3,0.5C39.9,7,39.5,7.8,39,8.7c-1.1,1.2-2.3,2.3-3.4,3.5
		c-1.1,1.2-2.3,2.4-3.4,3.7c-0.8,0.9-1.7,1.8-2.5,2.8c-1.3-1.2-2.8-2.4-4.7-2.9c-1.1-0.2-2.3,0-3.2,0.5c-1,0.5-1.8,1.4-2.3,2.2
		c-2,2.8-4.4,5-7.6,6.1c-0.2,0.1-0.5,0.1-0.7,0.2l-0.7,0.3c-2,0.7-3.8,1.7-5.4,3.2c-1.6,1.4-2.8,3.4-3.1,5.6
		c-0.2,1.1-0.1,2.3,0.2,3.4C2.6,40.4,4.9,43,7.1,45.1z M42.5,5.9c0.3-0.3,0.7-0.7,1.1-1c1.2-1.2,0.7-0.7,1.7-1.6l0,0l0,0
		c0.3,0.3,0.3,0.3,1.7,1.6L48,6l0.6,0.5c0.1,0.1,0.1,0,0.1,0.1v0.1l-0.5,0.5c-0.1,0.1-1.1,1.3-1,1.2c-0.4,0.3-0.8,0.7-1.1,0.9
		c-0.4,0.3-0.7,0.4-1.2,0.6c-0.7,0.3-1.4,0.7-2.2,1c-0.6-0.6-1.2-1.2-1.8-1.9c0.3-0.7,0.7-1.4,1-2.2c0.2-0.4,0.3-0.7,0.5-0.9
		C42.4,6,42.4,5.9,42.5,5.9z M33.2,17.1c1.2-1.1,2.4-2.3,3.6-3.5c1-0.9,1.9-1.9,2.9-2.8c0.5,0.5,0.9,1,1.4,1.4
		c-2.1,2.1-4.2,4.3-6.2,6.5c-2.2,2.4-4.3,4.8-6.4,7.2c-0.3-0.5-0.6-0.9-1.1-1.2c1.4,2,1,4.6-0.5,5.9c-1.5,1.4-3.9,1.3-5.2-0.1
		c-1.4-1.3-1.5-3.7-0.2-5.2c1.3-1.6,3.9-2,5.9-0.6c-0.4-0.5-0.9-1-1.5-1.3c1.2-1,2.3-2,3.5-3C30.7,19.4,31.9,18.3,33.2,17.1z
		 M3.5,34.4C3.8,32.6,4.7,31,6,29.7s3-2.2,4.7-2.9l0.7-0.3c0.2-0.1,0.5-0.2,0.7-0.3c0.5-0.2,1-0.4,1.4-0.6c0.9-0.5,1.8-1.1,2.6-1.7
		c1.6-1.3,3-2.9,4.1-4.6c0.5-0.9,1-1.5,1.8-1.9c0.8-0.5,1.6-0.6,2.5-0.5c1.6,0.3,3.1,1.3,4.5,2.4c-0.1,0.2-0.3,0.3-0.4,0.5
		c-1.1,1.2-2.1,2.4-3.1,3.6c-0.4-0.2-0.9-0.3-1.3-0.3c-1.3-0.1-2.7,0.4-3.8,1.3c-1.1,0.9-1.7,2.4-1.7,3.8s0.5,2.9,1.6,3.9
		c1,1,2.5,1.6,4,1.6c1.4-0.1,2.9-0.7,3.8-1.8c0.9-1,1.4-2.5,1.3-3.8c-0.1-0.6-0.2-1.2-0.5-1.7c1.3-1.1,2.7-2.3,4-3.5
		c1.1,1.4,2.1,2.9,2.4,4.5c0.1,0.9,0,1.8-0.5,2.5c-0.4,0.8-1.1,1.4-1.9,1.9c-2.6,1.7-4.9,3.9-6.3,6.7c-0.4,0.5-0.6,1-0.8,1.5
		s-0.3,1-0.5,1.4c-0.7,1.8-1.6,3.4-2.9,4.8c-1.8,2-4.5,3.2-7.1,2.4c-2.6-0.7-4.9-2.9-6.8-4.8c-1.4-1.4-2.7-2.8-3.7-4.4
		c-0.5-0.8-0.9-1.6-1.1-2.5C3.5,36.1,3.4,35.2,3.5,34.4z"/>
	<path d="M11,36.3c0.7,0.9,1.5,1.8,2.2,2.7s1.5,1.7,2.3,2.6c0.1,0.2,0.5,0.5,0.9,0.7s0.8,0.3,1.2,0.4c0.9,0.1,1.7-0.2,2.4-0.9
		c0.6-0.6,0.9-1.5,0.8-2.3c0-0.4-0.2-0.8-0.4-1.2c-0.2-0.4-0.5-0.7-0.7-0.9c-0.8-0.8-1.7-1.6-2.5-2.3c-0.9-0.8-1.7-1.5-2.6-2.3
		c-0.2-0.2-0.5-0.4-0.8-0.5s-0.7-0.2-1-0.2c-0.7,0-1.3,0.4-1.6,0.9c0.5-0.3,1.1-0.4,1.5-0.3c0.2,0.1,0.5,0.2,0.7,0.3
		s0.3,0.3,0.5,0.6c0.7,0.9,1.5,1.8,2.2,2.7s1.5,1.7,2.3,2.6c0.2,0.3,0.3,0.3,0.4,0.5c0.2,0.4,0.1,0.9-0.2,1.2
		c-0.3,0.3-0.8,0.4-1.2,0.2c-0.1-0.1-0.2-0.1-0.5-0.4c-0.9-0.8-1.7-1.6-2.5-2.3c-0.9-0.8-1.7-1.5-2.6-2.3c-0.2-0.2-0.4-0.3-0.6-0.5
		c-0.1-0.2-0.2-0.4-0.3-0.7c-0.1-0.5,0-1.1,0.3-1.6c-0.5,0.3-0.8,0.9-0.9,1.6c0,0.3,0,0.7,0.2,1C10.6,35.8,10.8,36.1,11,36.3z"/>
</g>
</svg>
