<?xml version="1.0" encoding="utf-8"?>
<!-- Generator: Adobe Illustrator 25.1.0, SVG Export Plug-In . SVG Version: 6.00 Build 0)  -->
<svg version="1.1" id="Layer_1" xmlns="http://www.w3.org/2000/svg" xmlns:xlink="http://www.w3.org/1999/xlink" x="0px" y="0px"
	 viewBox="0 0 100 125" style="enable-background:new 0 0 100 125;" xml:space="preserve">
<g>
	<path d="M74.2,5c-3.9-1.1-7.9,1.2-8.9,5.2l-7.2,30.4L48.8,6.9c-1-3.7-4.9-5.7-8.5-4.5c-3.2,1.1-5,4.3-4.4,7.6l6,29.5
		c-0.7-0.7-3-1.5-5.2-1c-3.1,0.7-5.3,3.5-5.4,6.5c0,0-0.1,0-0.1-0.1c-1.5-1-3.4-1.4-5.2-1c-3.6,0.8-6,4.3-5.3,8l1.9,9.7V71
		c0,14.9,12.1,27,27,27c14.8,0,26.9-12,27-26.8c0-0.1,0-0.1,0-0.2c0,0,0,0,0,0c0-0.7-0.1-1.4-0.2-2l-2.7-10.8
		c-0.8-10.4,1.4-22.4,3.6-34c0.7-3.8,1.4-7.5,1.9-11C80,9.6,77.8,6,74.2,5z M37.1,40.4c2.8-0.6,5.2,1.3,5.7,3.8l1.6,8
		c-0.9,1-1.5,2.3-1.7,3.6c-0.4,2.8,0.8,5.7,3.9,7.4c0.2,2.4-1.4,4.6-3.8,5.1c-2.3,0.5-4.8-0.8-5.5-3.1c0-0.2,0-0.4-0.1-0.6
		c-1.7-8.5-2.8-14.3-3.8-18.6C32.8,43.5,34.5,41,37.1,40.4z M26.4,45.9c2.4-0.5,4.7,0.8,5.5,2.9L35,65c0,0.2,0.1,0.5,0.2,0.7
		c0.1,2.3-1.4,4.5-3.8,5c-2.6,0.5-5.2-1.1-5.7-3.8c-4.1-20.7-2.8-14-3-15.4c0,0,0-0.1,0-0.1C22.2,48.9,23.9,46.5,26.4,45.9z
		 M49.6,96c-13.8,0-25-11.2-25-25v-1.5c1.5,2.5,4.5,3.7,7.2,3.1c2.3-0.5,4.1-2.2,4.9-4.3c1.5,1.6,3.9,2.5,6.4,2c3-0.6,5.1-3.2,5.3-6
		c1.8,0.8,3.9,1.6,6.1,2c-3.3,2.9-9.4,9.8-8,19.8c0.1,0.5,0.5,0.9,1,0.9c0,0,0.1,0,0.1,0c0.5-0.1,0.9-0.6,0.9-1.1
		c-1.5-10.7,6.8-17.7,8.7-19.2c0,0,0,0,0.1,0.1c0,0,0.1,0.1,0.1,0.3c-0.3,2.3-0.5,6.6,2,9c0.2,0.2,0.4,0.3,0.7,0.3
		c0.3,0,0.5-0.1,0.7-0.3c0.4-0.4,0.4-1-0.1-1.4c-1.9-1.7-1.7-5.3-1.4-7.2c0.1-0.7-0.1-1.3-0.5-1.8c-0.4-0.5-1.1-0.8-1.8-0.9h0
		c-3.2-0.2-6.3-1.4-8.7-2.6c-1-0.5-1.7-0.8-2.3-1.5c-3.7-3.8,0.3-10,5.2-8.3l20.7,7v0l2.8,11.9C74.6,84.8,63.4,96,49.6,96z
		 M77.3,12.9c-0.6,3.5-1.2,7.1-1.9,11c-2.1,11.2-4.2,22.8-3.7,33.1l-19.8-6.7c-1.9-0.7-4-0.4-5.8,0.5l-0.4-2.1c0-0.1,0-0.2,0-0.3
		L37.8,9.6c-0.5-2.3,0.9-4.6,3.1-5.3c2.5-0.8,5.2,0.6,6,3.2l10.4,37.5c0.1,0.4,0.5,0.7,1,0.7c0,0,0,0,0,0c0.5,0,0.8-0.3,1-0.8
		l8.1-34.2c0.6-2.8,3.5-4.6,6.4-3.8C76.2,7.7,77.8,10.3,77.3,12.9z"/>
</g>
</svg>
